<?xml version="1.0" encoding="UTF-8" standalone="no"?>
<svg xmlns="http://www.w3.org/2000/svg" viewBox="0 0 48 48">
  <!-- Main note shape -->
  <path fill="#3584e4" d="M8,4v40h32V14L30,4H8z"/>
  <!-- Folded corner -->
  <path fill="#1c71d8" d="M30,4v10h10L30,4z"/>
  <!-- Lock icon (enlarged and centered) -->
  <g transform="translate(14,16) scale(1.4)">
    <path fill="#ffffff" d="M8,0C5.8,0,4,1.8,4,4v2H2v8h12V6h-2V4C12,1.8,10.2,0,8,0z M8,2c1.1,0,2,0.9,2,2v2H6V4C6,2.9,6.9,2,8,2z"/>
  </g>
  <!-- Grid lines -->
  <g stroke="#99c1f1" stroke-width="0.5">
    <line x1="12" y1="28" x2="36" y2="28"/>
    <line x1="12" y1="32" x2="36" y2="32"/>
    <line x1="12" y1="36" x2="36" y2="36"/>
    <line x1="20" y1="24" x2="20" y2="38"/>
    <line x1="28" y1="24" x2="28" y2="38"/>
  </g>
</svg>
